REM DIRINDEX 1\2,1\3,1\4,1\5,1\6,1\7,1\8
REM DIRNAME cjc150,folder01,folder02,folder03,folder04,folder05,folder06,folder07
TITLE ""
FILE "007 ‚Å‚é•¶17.mp3" MP3
  TRACK 01 AUDIO
    TITLE "8:cjc150_0736"
    INDEX 01 00:00:00
  TRACK 02 AUDIO
    TITLE "0:"
    INDEX 01 00:01:42
  TRACK 03 AUDIO
    TITLE "2:cjc150_0737"
    INDEX 01 00:02:32
  TRACK 04 AUDIO
    TITLE "0:"
    INDEX 01 00:07:13
  TRACK 05 AUDIO
    TITLE "8:cjc150_0738"
    INDEX 01 00:08:36
  TRACK 06 AUDIO
    TITLE "0:"
    INDEX 01 00:11:13
  TRACK 07 AUDIO
    TITLE "3:cjc150_0739"
    INDEX 01 00:11:52
  TRACK 08 AUDIO
    TITLE "3:cjc150_0740"
    INDEX 01 00:12:71
  TRACK 09 AUDIO
    TITLE "3:cjc150_0741"
    INDEX 01 00:14:15
  TRACK 10 AUDIO
    TITLE "3:cjc150_0742"
    INDEX 01 00:16:22
  TRACK 11 AUDIO
    TITLE "3:cjc150_0743"
    INDEX 01 00:18:29
  TRACK 12 AUDIO
    TITLE "3:cjc150_0744"
    INDEX 01 00:20:30
  TRACK 13 AUDIO
    TITLE "3:cjc150_0745"
    INDEX 01 00:22:19
  TRACK 14 AUDIO
    TITLE "3:cjc150_0746"
    INDEX 01 00:23:51
  TRACK 15 AUDIO
    TITLE "8:cjc150_0747"
    INDEX 01 00:24:72
  TRACK 16 AUDIO
    TITLE "0:"
    INDEX 01 00:27:49
  TRACK 17 AUDIO
    TITLE "4:cjc150_0748"
    INDEX 01 00:28:25
  TRACK 18 AUDIO
    TITLE "4:cjc150_0749"
    INDEX 01 00:30:59
  TRACK 19 AUDIO
    TITLE "4:cjc150_0750"
    INDEX 01 00:33:66
  TRACK 20 AUDIO
    TITLE "4:cjc150_0751"
    INDEX 01 00:35:66
  TRACK 21 AUDIO
    TITLE "4:cjc150_0752"
    INDEX 01 00:38:33
  TRACK 22 AUDIO
    TITLE "4:cjc150_0753"
    INDEX 01 00:39:62
  TRACK 23 AUDIO
    TITLE "8:cjc150_0754"
    INDEX 01 00:41:55
  TRACK 24 AUDIO
    TITLE "0:"
    INDEX 01 00:44:50
  TRACK 25 AUDIO
    TITLE "5:cjc150_0755"
    INDEX 01 00:45:20
  TRACK 26 AUDIO
    TITLE "5:cjc150_0756"
    INDEX 01 00:46:43
  TRACK 27 AUDIO
    TITLE "5:cjc150_0757"
    INDEX 01 00:48:30
  TRACK 28 AUDIO
    TITLE "5:cjc150_0758"
    INDEX 01 00:49:51
  TRACK 29 AUDIO
    TITLE "5:cjc150_0759"
    INDEX 01 00:51:15
  TRACK 30 AUDIO
    TITLE "5:cjc150_0760"
    INDEX 01 00:52:67
  TRACK 31 AUDIO
    TITLE "5:cjc150_0761"
    INDEX 01 00:55:44
  TRACK 32 AUDIO
    TITLE "5:cjc150_0762"
    INDEX 01 00:57:48
  TRACK 33 AUDIO
    TITLE "5:cjc150_0763"
    INDEX 01 00:59:36
  TRACK 34 AUDIO
    TITLE "5:cjc150_0764"
    INDEX 01 01:01:05
  TRACK 35 AUDIO
    TITLE "5:cjc150_0765"
    INDEX 01 01:03:71
  TRACK 36 AUDIO
    TITLE "5:cjc150_0766"
    INDEX 01 01:05:66
  TRACK 37 AUDIO
    TITLE "5:cjc150_0767"
    INDEX 01 01:07:53
  TRACK 38 AUDIO
    TITLE "5:cjc150_0768"
    INDEX 01 01:09:01
  TRACK 39 AUDIO
    TITLE "5:cjc150_0769"
    INDEX 01 01:11:05
  TRACK 40 AUDIO
    TITLE "5:cjc150_0770"
    INDEX 01 01:12:38
  TRACK 41 AUDIO
    TITLE "8:cjc150_0771"
    INDEX 01 01:13:59
  TRACK 42 AUDIO
    TITLE "0:"
    INDEX 01 01:16:38
  TRACK 43 AUDIO
    TITLE "6:cjc150_0772"
    INDEX 01 01:17:16
  TRACK 44 AUDIO
    TITLE "6:cjc150_0773"
    INDEX 01 01:19:44
  TRACK 45 AUDIO
    TITLE "6:cjc150_0774"
    INDEX 01 01:23:03
  TRACK 46 AUDIO
    TITLE "6:cjc150_0775"
    INDEX 01 01:25:35
  TRACK 47 AUDIO
    TITLE "6:cjc150_0776"
    INDEX 01 01:27:67
  TRACK 48 AUDIO
    TITLE "6:cjc150_0777"
    INDEX 01 01:29:29
  TRACK 49 AUDIO
    TITLE "6:cjc150_0778"
    INDEX 01 01:32:21
  TRACK 50 AUDIO
    TITLE "6:cjc150_0779"
    INDEX 01 01:34:22
  TRACK 51 AUDIO
    TITLE "6:cjc150_0780"
    INDEX 01 01:36:31
  TRACK 52 AUDIO
    TITLE "6:cjc150_0781"
    INDEX 01 01:37:50
  TRACK 53 AUDIO
    TITLE "6:cjc150_0782"
    INDEX 01 01:39:72
  TRACK 54 AUDIO
    TITLE "6:cjc150_0783"
    INDEX 01 01:41:26
  TRACK 55 AUDIO
    TITLE "8:cjc150_0784"
    INDEX 01 01:42:22
  TRACK 56 AUDIO
    TITLE "0:"
    INDEX 01 01:43:74
  TRACK 57 AUDIO
    TITLE "7:cjc150_0785"
    INDEX 01 01:44:54
  TRACK 58 AUDIO
    TITLE "7:cjc150_0786"
    INDEX 01 01:49:35
  TRACK 59 AUDIO
    TITLE "0:"
    INDEX 01 01:53:51
